<?xml version="1.0" encoding="UTF-8" standalone="no"?>
<svg
   width="140"
   height="40"
   viewBox="0 0 37.041666 10.583335"
   version="1.1"
   id="svg1787"
   inkscape:version="1.3 (0e150ed6c4, 2023-07-21)"
   sodipodi:docname="ego.svg"
   xmlns:inkscape="http://www.inkscape.org/namespaces/inkscape"
   xmlns:sodipodi="http://sodipodi.sourceforge.net/DTD/sodipodi-0.dtd"
   xmlns:xlink="http://www.w3.org/1999/xlink"
   xmlns="http://www.w3.org/2000/svg"
   xmlns:svg="http://www.w3.org/2000/svg"
   xmlns:rdf="http://www.w3.org/1999/02/22-rdf-syntax-ns#"
   xmlns:cc="http://creativecommons.org/ns#"
   xmlns:dc="http://purl.org/dc/elements/1.1/">
  <title
     id="title2446">Download From EGO Logo</title>
  <defs
     id="defs1781">
    <linearGradient
       id="linearGradient10"
       inkscape:collect="always">
      <stop
         style="stop-color:#9868d5;stop-opacity:1;"
         offset="0"
         id="stop10" />
      <stop
         style="stop-color:#8318ff;stop-opacity:1;"
         offset="1"
         id="stop11" />
    </linearGradient>
    <linearGradient
       inkscape:collect="always"
       xlink:href="#linearGradient10"
       id="linearGradient11"
       x1="36.385891"
       y1="19.318071"
       x2="9.0166798"
       y2="19.318071"
       gradientUnits="userSpaceOnUse" />
  </defs>
  <sodipodi:namedview
     id="base"
     pagecolor="#ffffff"
     bordercolor="#666666"
     borderopacity="1.0"
     inkscape:pageopacity="0.0"
     inkscape:pageshadow="2"
     inkscape:zoom="2.8284271"
     inkscape:cx="111.19254"
     inkscape:cy="29.344931"
     inkscape:document-units="px"
     inkscape:current-layer="layer1"
     inkscape:document-rotation="0"
     showgrid="false"
     inkscape:window-width="1920"
     inkscape:window-height="1048"
     inkscape:window-x="0"
     inkscape:window-y="0"
     inkscape:window-maximized="1"
     units="px"
     inkscape:snap-global="false"
     inkscape:pagecheckerboard="0"
     showguides="true"
     inkscape:guide-bbox="true"
     inkscape:showpageshadow="2"
     inkscape:deskcolor="#ffffff"
     showborder="false" />
  <metadata
     id="metadata1784">
    <rdf:RDF>
      <cc:Work
         rdf:about="">
        <dc:format>image/svg+xml</dc:format>
        <dc:type
           rdf:resource="http://purl.org/dc/dcmitype/StillImage" />
        <dc:title>Download From EGO Logo</dc:title>
        <dc:date>2021</dc:date>
        <dc:publisher>
          <cc:Agent>
            <dc:title>Javad Rahmatzadeh</dc:title>
          </cc:Agent>
        </dc:publisher>
        <dc:creator>
          <cc:Agent>
            <dc:title>Javad Rahmatzadeh</dc:title>
          </cc:Agent>
        </dc:creator>
        <cc:license
           rdf:resource="https://www.gnu.org/licenses/gpl-3.0.html" />
      </cc:Work>
    </rdf:RDF>
  </metadata>
  <g
     inkscape:label="Layer 1"
     inkscape:groupmode="layer"
     id="layer1"
     transform="translate(-2.2730319,-14.040994)">
    <rect
       style="fill:url(#linearGradient11);fill-opacity:1;stroke-width:1.16255"
       id="rect22316"
       width="36.897137"
       height="10.497947"
       x="2.363776"
       y="14.1931"
       ry="2.2709818" />
    <g
       id="g15534"
       transform="matrix(0.60567829,0,0,0.60567829,4.1587877,8.924977)">
      <g
         id="g15525" />
    </g>
    <g
       style="mix-blend-mode:normal;fill:#ffffff"
       id="layer1-3"
       transform="matrix(0.01788185,0,0,0.01788185,7.6051841,12.15283)">
      <g
         style="fill:#ffffff"
         id="g15041"
         transform="matrix(1.293235,0,0,1.293235,-4878.321,-1224.915)">
        <g
           id="g15043"
           style="fill:#ffffff;fill-opacity:1;fill-rule:nonzero;stroke:none;stroke-miterlimit:4"
           transform="matrix(2.438586,0,0,2.438586,3659.952,1113.451)">
          <g
             id="g15045"
             style="fill:#ffffff;fill-opacity:1">
            <path
               inkscape:connector-curvature="0"
               id="path15047"
               style="fill:#ffffff;fill-opacity:1"
               d="M 86.068,0 C 61.466,0 56.851,35.041 70.691,35.041 84.529,35.041 110.671,0 86.068,0 Z" />
            <path
               inkscape:connector-curvature="0"
               id="path15049"
               style="fill:#ffffff;fill-opacity:1"
               d="M 45.217,30.699 C 52.586,31.149 60.671,2.577 46.821,4.374 32.976,6.171 37.845,30.249 45.217,30.699 Z" />
            <path
               inkscape:connector-curvature="0"
               id="path15051"
               style="fill:#ffffff;fill-opacity:1"
               d="M 11.445,48.453 C 16.686,46.146 12.12,23.581 3.208,29.735 -5.7,35.89 6.204,50.759 11.445,48.453 Z" />
            <path
               inkscape:connector-curvature="0"
               id="path15053"
               style="fill:#ffffff;fill-opacity:1"
               d="M 26.212,36.642 C 32.451,35.37 32.793,9.778 21.667,14.369 10.539,18.961 19.978,37.916 26.212,36.642 Z" />
            <path
               inkscape:connector-curvature="0"
               id="path15055"
               style="fill:#ffffff;fill-opacity:1"
               d="m 58.791,93.913 c 1.107,8.454 -6.202,12.629 -13.36,7.179 C 22.644,83.743 83.16,75.088 79.171,51.386 75.86,31.712 15.495,37.769 8.621,68.553 3.968,89.374 27.774,118.26 52.614,118.26 c 12.22,0 26.315,-11.034 28.952,-25.012 C 83.58,82.589 57.867,86.86 58.791,93.913 Z" />
          </g>
        </g>
      </g>
    </g>
    <path
       d="m 13.463575,19.056603 c 0.529654,0 0.892779,-0.319181 0.892779,-0.809516 0,-0.490335 -0.363125,-0.809515 -0.892779,-0.809515 h -0.735503 v 1.619031 z m -0.360813,-1.311415 h 0.34231 c 0.321492,0 0.531967,0.191971 0.531967,0.501899 0,0.309929 -0.210475,0.5019 -0.531967,0.5019 h -0.34231 z m 2.102427,1.329917 c 0.395507,0 0.682306,-0.265983 0.682306,-0.640673 0,-0.374689 -0.286799,-0.640674 -0.682306,-0.640674 -0.395505,0 -0.684618,0.265985 -0.684618,0.640674 0,0.37469 0.289113,0.640673 0.684618,0.640673 z m 0,-0.296051 c -0.180405,0 -0.31918,-0.129522 -0.31918,-0.344622 0,-0.2151 0.138775,-0.344622 0.31918,-0.344622 0.180407,0 0.316868,0.129522 0.316868,0.344622 0,0.2151 -0.136461,0.344622 -0.316868,0.344622 z m 2.264334,-0.124896 -0.296052,-0.841896 h -0.305303 l -0.305302,0.841896 -0.293739,-0.841896 h -0.339996 l 0.448702,1.244341 h 0.346936 l 0.289113,-0.77251 0.279861,0.77251 h 0.346934 l 0.451016,-1.244341 h -0.31918 z m 1.547331,-0.8604 c -0.168842,0 -0.314554,0.05782 -0.411696,0.164217 v -0.145713 h -0.344622 v 1.244341 h 0.360812 V 18.44137 c 0,-0.228976 0.124897,-0.33537 0.298364,-0.33537 0.159591,0 0.252106,0.09252 0.252106,0.293739 v 0.656864 h 0.360813 v -0.712374 c 0,-0.379316 -0.222038,-0.550471 -0.515777,-0.550471 z m 1.202709,1.262845 V 17.34043 H 19.85875 v 1.716173 z m 0.927475,0.0185 c 0.395506,0 0.682306,-0.265983 0.682306,-0.640673 0,-0.374689 -0.2868,-0.640674 -0.682306,-0.640674 -0.395507,0 -0.684619,0.265985 -0.684619,0.640674 0,0.37469 0.289112,0.640673 0.684619,0.640673 z m 0,-0.296051 c -0.180407,0 -0.31918,-0.129522 -0.31918,-0.344622 0,-0.2151 0.138773,-0.344622 0.31918,-0.344622 0.180407,0 0.316867,0.129522 0.316867,0.344622 0,0.2151 -0.13646,0.344622 -0.316867,0.344622 z m 1.403931,-0.985296 c -0.19891,0 -0.400133,0.0532 -0.536594,0.150339 l 0.129523,0.252106 c 0.09021,-0.07169 0.226664,-0.115645 0.3585,-0.115645 0.194283,0 0.286799,0.0902 0.286799,0.245168 h -0.286799 c -0.379316,0 -0.534281,0.152651 -0.534281,0.372377 0,0.215099 0.173467,0.377002 0.464894,0.377002 0.182719,0 0.312241,-0.06013 0.379315,-0.173467 v 0.154965 H 23.15001 V 18.34654 c 0,-0.377003 -0.219726,-0.552784 -0.599041,-0.552784 z m -0.02776,1.038493 c -0.127209,0 -0.203534,-0.06013 -0.203534,-0.150339 0,-0.08327 0.05319,-0.145712 0.222038,-0.145712 h 0.24748 v 0.12721 c -0.04163,0.113332 -0.145712,0.168841 -0.265984,0.168841 z m 1.868825,-0.888154 c -0.0902,-0.101771 -0.219726,-0.150339 -0.372377,-0.150339 -0.351561,0 -0.622171,0.249794 -0.622171,0.640674 0,0.390881 0.27061,0.640673 0.622171,0.640673 0.166529,0 0.298365,-0.0532 0.388567,-0.161903 v 0.143401 H 24.75285 V 17.34043 h -0.360812 z m -0.309928,0.834957 c -0.180407,0 -0.319181,-0.129522 -0.319181,-0.344622 0,-0.2151 0.138774,-0.344622 0.319181,-0.344622 0.178093,0 0.316867,0.129522 0.316867,0.344622 0,0.2151 -0.138774,0.344622 -0.316867,0.344622 z m 2.053856,-0.992234 c 0,-0.122584 0.05782,-0.180407 0.164216,-0.180407 0.05551,0 0.106394,0.01619 0.145713,0.04395 l 0.09483,-0.261357 c -0.06707,-0.04626 -0.173467,-0.06707 -0.275235,-0.06707 -0.309928,0 -0.481083,0.18272 -0.481083,0.462581 v 0.05551 h -0.191971 v 0.277548 h 0.191971 v 0.939038 h 0.360813 v -0.939038 h 0.309929 v -0.277555 h -0.319181 z m 0.853459,0.02545 h -0.344622 v 1.244341 h 0.360812 V 18.46913 c 0,-0.238229 0.131835,-0.346936 0.330744,-0.346936 0.02776,0 0.05088,0.0023 0.08096,0.0046 v -0.333058 c -0.19197,0 -0.339996,0.06245 -0.427886,0.182719 z m 1.223521,1.262844 c 0.395506,0 0.682306,-0.265984 0.682306,-0.640674 0,-0.374689 -0.2868,-0.640673 -0.682306,-0.640673 -0.395506,0 -0.684619,0.265984 -0.684619,0.640673 0,0.37469 0.289113,0.640674 0.684619,0.640674 z m 0,-0.296052 c -0.180406,0 -0.31918,-0.129522 -0.31918,-0.344622 0,-0.2151 0.138774,-0.344622 0.31918,-0.344622 0.180407,0 0.316867,0.129522 0.316867,0.344622 0,0.2151 -0.13646,0.344622 -0.316867,0.344622 z m 2.516439,-0.985295 c -0.187345,0 -0.349249,0.07633 -0.448703,0.203535 -0.08789,-0.136461 -0.235916,-0.203535 -0.409383,-0.203535 -0.159591,0 -0.298365,0.05551 -0.390881,0.161902 v -0.143399 h -0.344622 v 1.244341 h 0.360812 v -0.624483 c 0,-0.22204 0.113333,-0.32612 0.272923,-0.32612 0.150339,0 0.235916,0.09252 0.235916,0.293739 v 0.656864 h 0.360813 v -0.624483 c 0,-0.22204 0.113332,-0.32612 0.275235,-0.32612 0.145712,0 0.235916,0.09252 0.235916,0.293739 v 0.656864 h 0.360812 v -0.712374 c 0,-0.379316 -0.212787,-0.55047 -0.508838,-0.55047 z"
       id="text1"
       style="font-weight:bold;font-size:2.24243px;line-height:1.25;font-family:Montserrat;-inkscape-font-specification:'Montserrat Bold';fill:#ffffff;stroke-width:0.00373213"
       aria-label="Download from" />
    <path
       d="m 13.894153,21.286994 c 0,-0.355789 -0.250903,-0.573787 -0.575842,-0.573787 -0.33728,0 -0.590239,0.238564 -0.590239,0.569673 0,0.329053 0.248846,0.569674 0.63137,0.569674 0.199488,0 0.353731,-0.0617 0.456561,-0.178923 l -0.170696,-0.185092 c -0.07609,0.07198 -0.160414,0.106942 -0.277639,0.106942 -0.16864,0 -0.285865,-0.08432 -0.316713,-0.22211 h 0.837028 c 0.0021,-0.02673 0.0062,-0.0617 0.0062,-0.08638 z m -0.573786,-0.33111 c 0.14396,0 0.248846,0.09049 0.271468,0.230337 h -0.544994 c 0.02262,-0.141903 0.127508,-0.230337 0.273526,-0.230337 z m 1.39642,0.314658 0.411317,-0.540881 h -0.341392 l -0.240621,0.322882 -0.23445,-0.322882 h -0.359902 l 0.411317,0.549106 -0.425712,0.557334 h 0.349618 l 0.250903,-0.339336 0.242677,0.339336 h 0.364015 z m 1.211326,0.285864 c -0.03497,0.02674 -0.08227,0.04113 -0.129565,0.04113 -0.08638,0 -0.137791,-0.05142 -0.137791,-0.146017 v -0.450392 h 0.275582 v -0.246789 h -0.275582 v -0.269413 h -0.320826 v 0.269413 h -0.170696 v 0.246789 h 0.170696 v 0.454505 c 0,0.263242 0.152187,0.39692 0.413373,0.39692 0.09872,0 0.195374,-0.02262 0.261186,-0.06992 z m 1.31621,-0.269412 c 0,-0.355789 -0.250903,-0.573787 -0.575842,-0.573787 -0.33728,0 -0.590239,0.238564 -0.590239,0.569673 0,0.329053 0.248846,0.569674 0.63137,0.569674 0.199488,0 0.353732,-0.0617 0.456561,-0.178923 l -0.170696,-0.185092 c -0.0761,0.07198 -0.160414,0.106942 -0.277638,0.106942 -0.16864,0 -0.285865,-0.08432 -0.316714,-0.22211 h 0.837028 c 0.0021,-0.02673 0.0062,-0.0617 0.0062,-0.08638 z m -0.573785,-0.33111 c 0.14396,0 0.248846,0.09049 0.271468,0.230337 h -0.544994 c 0.02262,-0.141903 0.127508,-0.230337 0.273526,-0.230337 z m 1.460173,-0.242677 c -0.150131,0 -0.279695,0.05142 -0.366072,0.146018 v -0.129564 h -0.30643 v 1.10644 h 0.320826 V 21.28905 c 0,-0.203601 0.111056,-0.298203 0.265299,-0.298203 0.141904,0 0.224167,0.08227 0.224167,0.261185 v 0.584069 h 0.320828 v -0.633427 c 0,-0.33728 -0.197433,-0.489467 -0.458618,-0.489467 z m 1.120837,1.139347 c 0.331109,0 0.522372,-0.146017 0.522372,-0.351675 0,-0.435996 -0.668389,-0.25296 -0.668389,-0.442166 0,-0.05758 0.0617,-0.102833 0.205658,-0.102833 0.10077,0 0.20977,0.02057 0.318769,0.08227 l 0.106943,-0.228281 c -0.104886,-0.0617 -0.273525,-0.09665 -0.425712,-0.09665 -0.322884,0 -0.51209,0.148075 -0.51209,0.357845 0,0.442166 0.668389,0.257073 0.668389,0.438052 0,0.0617 -0.05552,0.100771 -0.203601,0.100771 -0.135734,0 -0.285864,-0.04319 -0.384581,-0.106943 l -0.106941,0.230337 c 0.102833,0.06787 0.292033,0.119282 0.479183,0.119281 z m 0.880217,-1.277137 c 0.119282,0 0.199488,-0.07815 0.199488,-0.185093 0,-0.09872 -0.0802,-0.172752 -0.199488,-0.172752 -0.119282,0 -0.199488,0.07815 -0.199488,0.178922 0,0.100771 0.0802,0.178923 0.199488,0.178923 z m 0.160413,1.260684 v -1.10644 h -0.320827 v 1.10644 z m 0.824691,0.01645 c 0.351675,0 0.606691,-0.236507 0.606691,-0.569674 0,-0.333166 -0.255016,-0.569673 -0.606691,-0.569673 -0.351676,0 -0.608748,0.236507 -0.608748,0.569673 0,0.333167 0.257072,0.569674 0.608748,0.569674 z m 0,-0.263243 c -0.160414,0 -0.283809,-0.115168 -0.283809,-0.306431 0,-0.191261 0.123395,-0.30643 0.283809,-0.30643 0.160413,0 0.281751,0.115169 0.281751,0.30643 0,0.191263 -0.121338,0.306431 -0.281751,0.306431 z m 1.493079,-0.876104 c -0.150131,0 -0.279695,0.05142 -0.366072,0.146018 v -0.129563 h -0.306431 v 1.10644 h 0.320828 V 21.28905 c 0,-0.203601 0.111055,-0.298203 0.265299,-0.298203 0.141904,0 0.224167,0.08227 0.224167,0.261185 v 0.584069 h 0.320826 v -0.633427 c 0,-0.33728 -0.197431,-0.489467 -0.458617,-0.489468 z m 1.120837,1.139347 c 0.33111,0 0.522372,-0.146017 0.522372,-0.351675 0,-0.435996 -0.668389,-0.25296 -0.668389,-0.442166 0,-0.05758 0.0617,-0.102833 0.205658,-0.102833 0.100771,0 0.209771,0.02057 0.31877,0.08227 l 0.106942,-0.228281 c -0.104885,-0.0617 -0.273525,-0.09665 -0.425712,-0.09665 -0.322883,0 -0.512088,0.148075 -0.512088,0.357845 0,0.442166 0.668389,0.257073 0.668389,0.438052 0,0.0617 -0.05553,0.100771 -0.203603,0.100771 -0.135733,0 -0.285864,-0.04319 -0.38458,-0.106943 l -0.106942,0.230337 c 0.102833,0.06787 0.292034,0.119282 0.479183,0.119281 z m 0.841142,0 c 0.111054,0 0.199488,-0.08432 0.199488,-0.201545 0,-0.119282 -0.08844,-0.197432 -0.199488,-0.197432 -0.111056,0 -0.199488,0.07815 -0.199488,0.197432 0,0.117225 0.08843,0.201545 0.199488,0.201545 z m 1.240118,-0.98099 c -0.08432,-0.106942 -0.211829,-0.158357 -0.366072,-0.158357 -0.306431,0 -0.553221,0.211828 -0.553221,0.534712 0,0.322883 0.24679,0.534711 0.553221,0.534711 0.14396,0 0.265298,-0.04525 0.349618,-0.137791 v 0.0473 c 0,0.199489 -0.09872,0.302318 -0.324939,0.302318 -0.141905,0 -0.296149,-0.04935 -0.390751,-0.125452 l -0.127508,0.230337 c 0.129565,0.10077 0.333166,0.152188 0.542938,0.152188 0.398976,0 0.621087,-0.189206 0.621087,-0.600522 v -0.921347 h -0.304373 z m -0.302319,0.647823 c -0.168639,0 -0.292034,-0.108999 -0.292034,-0.271468 0,-0.16247 0.123395,-0.271469 0.292034,-0.271469 0.168641,0 0.289979,0.108999 0.289979,0.271469 0,0.162469 -0.121338,0.271468 -0.289979,0.271468 z m 1.5774,-0.80618 c -0.150131,0 -0.279695,0.05142 -0.366072,0.146018 v -0.129563 h -0.306431 v 1.10644 h 0.320828 V 21.28905 c 0,-0.203601 0.111055,-0.298203 0.265299,-0.298203 0.141903,0 0.224167,0.08227 0.224167,0.261185 v 0.584069 h 0.320826 v -0.633427 c 0,-0.33728 -0.197431,-0.489467 -0.458617,-0.489468 z m 1.283306,1.139347 c 0.351675,0 0.606691,-0.236507 0.606691,-0.569674 0,-0.333166 -0.255016,-0.569673 -0.606691,-0.569673 -0.351676,0 -0.608748,0.236507 -0.608748,0.569673 0,0.333167 0.257072,0.569674 0.608748,0.569674 z m 0,-0.263243 c -0.160413,0 -0.283808,-0.115168 -0.283808,-0.306431 0,-0.191261 0.123395,-0.30643 0.283808,-0.30643 0.160413,0 0.281752,0.115169 0.281752,0.30643 0,0.191263 -0.121339,0.306431 -0.281752,0.306431 z m 2.237562,-0.876104 c -0.166584,0 -0.310544,0.06787 -0.398977,0.180979 -0.07815,-0.121338 -0.209772,-0.180979 -0.364015,-0.180979 -0.141904,0 -0.265299,0.04935 -0.347562,0.143962 v -0.127507 h -0.306431 v 1.10644 h 0.320826 v -0.555277 c 0,-0.197432 0.100771,-0.289977 0.242677,-0.289977 0.133678,0 0.209772,0.08227 0.209772,0.261185 v 0.584069 h 0.320826 v -0.555277 c 0,-0.197432 0.10077,-0.289977 0.244734,-0.289977 0.129564,0 0.209771,0.08227 0.209771,0.261185 v 0.584069 h 0.320826 v -0.633427 c 0,-0.33728 -0.189204,-0.489467 -0.452447,-0.489468 z m 1.832412,0.573787 c 0,-0.355789 -0.250902,-0.573787 -0.575843,-0.573787 -0.337279,0 -0.590239,0.238564 -0.590239,0.569673 0,0.329053 0.248846,0.569674 0.631371,0.569674 0.199488,0 0.353732,-0.0617 0.456561,-0.178923 l -0.170697,-0.185091 c -0.0761,0.07198 -0.160412,0.106942 -0.277638,0.106942 -0.168639,0 -0.285865,-0.08432 -0.316713,-0.22211 h 0.837028 c 0.0021,-0.02673 0.0062,-0.0617 0.0062,-0.08638 z m -0.573786,-0.33111 c 0.14396,0 0.248846,0.09049 0.271469,0.230337 h -0.544994 c 0.02262,-0.141903 0.127508,-0.230337 0.273525,-0.230337 z m 0.909011,0.89667 c 0.111055,0 0.199488,-0.08432 0.199488,-0.201545 0,-0.119282 -0.08843,-0.197432 -0.199488,-0.197432 -0.111056,0 -0.199489,0.07815 -0.199489,0.197432 0,0.117225 0.08843,0.201545 0.199489,0.201545 z m 0.929572,0 c 0.351676,0 0.606692,-0.236507 0.606692,-0.569674 0,-0.333166 -0.255016,-0.569673 -0.606692,-0.569673 -0.351675,0 -0.608748,0.236507 -0.608748,0.569673 0,0.333167 0.257073,0.569674 0.608748,0.569674 z m 0,-0.263243 c -0.160413,0 -0.283808,-0.115168 -0.283808,-0.306431 0,-0.191261 0.123395,-0.30643 0.283808,-0.30643 0.160414,0 0.281752,0.115169 0.281752,0.30643 0,0.191263 -0.121338,0.306431 -0.281752,0.306431 z m 1.127008,-0.85965 h -0.30643 v 1.10644 h 0.320826 v -0.522372 c 0,-0.211828 0.117226,-0.308487 0.294092,-0.308487 0.02468,0 0.04525,0.0021 0.07198,0.0041 v -0.296148 c -0.170696,0 -0.302317,0.05553 -0.380467,0.16247 z m 1.398474,0.141903 c -0.08432,-0.106942 -0.211828,-0.158357 -0.366072,-0.158357 -0.30643,0 -0.55322,0.211828 -0.55322,0.534712 0,0.322883 0.24679,0.534711 0.55322,0.534711 0.143961,0 0.2653,-0.04525 0.349619,-0.137791 v 0.0473 c 0,0.199489 -0.09872,0.302318 -0.32494,0.302318 -0.141903,0 -0.296147,-0.04935 -0.39075,-0.125452 l -0.127508,0.230338 c 0.129564,0.10077 0.333166,0.152188 0.542937,0.152188 0.398978,0 0.621088,-0.189206 0.621088,-0.600522 v -0.921348 h -0.304374 z m -0.302317,0.647823 c -0.16864,0 -0.292035,-0.108999 -0.292035,-0.271468 0,-0.16247 0.123395,-0.271469 0.292035,-0.271469 0.168639,0 0.289977,0.108999 0.289977,0.271469 0,0.162469 -0.121338,0.271468 -0.289977,0.271468 z"
       id="text2"
       style="font-weight:bold;font-size:1.99392px;line-height:1.25;font-family:Montserrat;-inkscape-font-specification:'Montserrat Bold';fill:#ffffff;stroke-width:0.00331854"
       aria-label="extensions.gnome.org" />
  </g>
</svg>
